<svg width="32" height="32" fill="none" xmlns="http://www.w3.org/2000/svg"><path fill-rule="evenodd" clip-rule="evenodd" d="M13.873 4.873c-.605.597-.886 1.173-.886 1.816 0 1.286 1.424 2.69 2.727 2.69 1.304 0 2.728-1.404 2.728-2.69C18.442 5.404 17.018 4 15.714 4c-.652 0-1.237.277-1.841.873zM5.916 8.682c-.11.109-.202.447-.202.751 0 .413.918.977 3.637 2.236l3.636 1.683v1.605c0 1.57-.061 1.683-2.746 5.053-1.554 1.951-2.703 3.668-2.647 3.954.22 1.129 1.446.464 4.764-2.585l3.364-3.09 3.467 3.19c3.415 3.14 4.414 3.673 4.647 2.482.055-.282-1.108-2.017-2.648-3.95-2.677-3.361-2.746-3.49-2.746-5.037v-1.588l3.636-1.68c2.961-1.37 3.636-1.798 3.636-2.312 0-.348-.2-.708-.446-.8-.245-.093-2.085.449-4.087 1.204-4.87 1.837-5.98 1.84-10.816.03-3.69-1.382-4.102-1.488-4.449-1.146zm6.162 16.387c-.917.22-2.324.68-3.127 1.02-1.203.509-1.444.737-1.364 1.292.123.854.94.83 3.43-.105 1.43-.536 2.433-.682 4.697-.682 2.264 0 3.267.146 4.697.682 2.491.934 3.308.96 3.43.105.08-.555-.16-.783-1.36-1.29-3.392-1.434-7.152-1.803-10.403-1.022z" fill="#202020"/></svg>