<svg width="48" height="48" fill="none" xmlns="http://www.w3.org/2000/svg"><rect x="2.862" y="16.515" width="35" height="17" rx="8.5" transform="rotate(-15 2.862 16.515)" fill="#fff" stroke="#202020"/><rect x="4.06" y="24.183" width="35" height="17" rx="8.5" transform="rotate(-30 4.06 24.183)" fill="#fff" stroke="#202020"/><rect x="5.56" y="26.781" width="35" height="17" rx="8.5" transform="rotate(-30 5.56 26.781)" fill="#fff" stroke="#202020"/><path fill-rule="evenodd" clip-rule="evenodd" d="M17.821 34.767a5.25 5.25 0 100-10.5 5.25 5.25 0 000 10.5zm1.5-7.992v3.498a.25.25 0 01-.253.257.25.25 0 01-.252-.257v-3.498a.25.25 0 01.252-.258.25.25 0 01.253.258zm-.27 4.815a1.878 1.878 0 01-1.606.927c-.462 0-.924-.18-1.269-.498a1.923 1.923 0 01-.605-1.236c-.008-.137.093-.266.227-.274a.254.254 0 01.27.232c.024.308.167.66.445.918.277.258.639.37.941.37.37 0 .74-.164.992-.439a1.67 1.67 0 00.177-.249.245.245 0 01.336-.094c.118.069.16.223.093.343zm13.059-5.073a5.25 5.25 0 100-10.5 5.25 5.25 0 000 10.5zm-.26-2.507v-4.314c0-.146.111-.257.256-.257a.25.25 0 01.255.257v4.314a.25.25 0 01-.255.257.252.252 0 01-.255-.257zm-1.735-5.743h3.99c.145 0 .255.112.255.258 0 .145-.11.257-.255.257h-3.99a.252.252 0 01-.255-.258c0-.145.11-.257.255-.257z" fill="#202020"/></svg>