<svg width="32" height="32" fill="none" xmlns="http://www.w3.org/2000/svg"><path fill-rule="evenodd" clip-rule="evenodd" d="M19.375 5.198c-.918.899-.833 2.875.16 3.68 2.09 1.7 5.336-1.477 3.6-3.525-.823-.97-2.842-1.054-3.76-.155zm-8.838 4.738c-1.291.916-2.348 1.894-2.348 2.173 0 1.166 1.301 1.133 3.216-.083 1.985-1.26 3.983-1.441 3.983-.362 0 .292-.623 1.429-1.385 2.526-1.988 2.864-1.783 3.713 1.358 5.624 2.56 1.558 2.718 1.782 2.38 3.367-.688 3.22-.502 4.408.687 4.408.904 0 1.237-.616 1.859-3.438l.757-3.44-1.676-1.71-1.676-1.713 1.315-2.44c1.796-3.332 1.718-4.248-.435-5.128-3.953-1.617-5.509-1.575-8.035.216zm9.903 4.246c-.487.891-.501 1.5-.053 2.32.505.922 1.054 1.086 3.204.95 3.358-.212 3.662-1.657.433-2.062-1.501-.188-2.279-.598-2.543-1.343-.37-1.038-.402-1.034-1.041.135zm-9.301 5.21c-.289.504-1.5.871-3.229.978-2.34.144-2.767.338-2.767 1.255 0 .95.423 1.105 3.432 1.245 3.163.149 3.504.052 4.366-1.237.515-.768.84-1.459.722-1.533-.117-.076-.63-.448-1.138-.827-.76-.567-1.006-.546-1.386.119z" fill="#202020"/></svg>