<svg width="32" height="32" fill="none" xmlns="http://www.w3.org/2000/svg"><path d="M24 5H8a3 3 0 00-3 3v16a3 3 0 003 3h16a3 3 0 003-3V8a3 3 0 00-3-3z" stroke="#202020" stroke-width="2" stroke-linecap="round" stroke-linejoin="round"/><path d="M11.5 12a1.5 1.5 0 100-3 1.5 1.5 0 000 3zm0 5.5a1.5 1.5 0 100-3 1.5 1.5 0 000 3zm0 5.5a1.5 1.5 0 100-3 1.5 1.5 0 000 3zm9-11a1.5 1.5 0 100-3 1.5 1.5 0 000 3zm0 5.5a1.5 1.5 0 100-3 1.5 1.5 0 000 3zm0 5.5a1.5 1.5 0 100-3 1.5 1.5 0 000 3z" fill="#202020"/></svg>