<svg width="32" height="32" viewBox="0 0 32 32" fill="none" xmlns="http://www.w3.org/2000/svg">
<g id="Frame 38">
<path id="icons8-&#208;&#177;&#208;&#176;&#209;&#130;&#209;&#131;&#209;&#130;-90 1 (Traced)" fill-rule="evenodd" clip-rule="evenodd" d="M13.8728 4.87345C13.2683 5.4696 12.9871 6.04632 12.9871 6.68938C12.9871 7.9749 14.4107 9.37876 15.7144 9.37876C17.018 9.37876 18.4416 7.9749 18.4416 6.68938C18.4416 5.40386 17.018 4 15.7144 4C15.0622 4 14.4774 4.2773 13.8728 4.87345ZM5.91648 8.68161C5.80526 8.79098 5.71436 9.12924 5.71436 9.43314C5.71436 9.84581 6.63163 10.41 9.35072 11.6686L12.9871 13.3522V14.9571C12.9871 16.5262 12.9256 16.6395 10.241 20.0105C8.68739 21.9615 7.53799 23.6782 7.59375 23.9638C7.81405 25.0928 9.03951 24.4282 12.3583 21.3794L15.7219 18.2893L19.1895 21.4783C22.6038 24.6186 23.6028 25.1523 23.8356 23.9606C23.8907 23.6791 22.7277 21.9444 21.1877 20.0105C18.5113 16.6496 18.4416 16.5217 18.4416 14.9739V13.3856L22.078 11.7054C25.0392 10.3368 25.7144 9.90767 25.7144 9.3937C25.7144 9.04647 25.5134 8.68639 25.2683 8.59346C25.0228 8.50052 23.1834 9.04288 21.1807 9.7983C16.3113 11.6351 15.201 11.6381 10.365 9.82758C6.67436 8.44584 6.26284 8.34006 5.91648 8.68161ZM12.078 25.0689C11.1613 25.2894 9.75405 25.7481 8.95072 26.0885C7.7483 26.5976 7.50708 26.8262 7.58708 27.3812C7.71011 28.2352 8.52617 28.2101 11.0174 27.276C12.4474 26.7396 13.4504 26.5941 15.7144 26.5941C17.9783 26.5941 18.9813 26.7396 20.4113 27.276C22.9025 28.2101 23.7186 28.2352 23.8416 27.3812C23.9216 26.8262 23.681 26.5982 22.4807 26.0908C19.0889 24.6571 15.3286 24.2878 12.078 25.0689Z" fill="#202020"/>
</g>
</svg>
