<svg width="48" height="48" viewBox="0 0 48 48" fill="none" xmlns="http://www.w3.org/2000/svg">
<g id="Frame 19">
<rect id="Rectangle 256" x="2.86237" y="16.515" width="35" height="17" rx="8.5" transform="rotate(-15 2.86237 16.515)" fill="white" stroke="#202020"/>
<rect id="Rectangle 255" x="4.06021" y="24.183" width="35" height="17" rx="8.5" transform="rotate(-30 4.06021 24.183)" fill="white" stroke="#202020"/>
<rect id="Rectangle 254" x="5.56021" y="26.7811" width="35" height="17" rx="8.5" transform="rotate(-30 5.56021 26.7811)" fill="white" stroke="#202020"/>
<path id="Subtract" fill-rule="evenodd" clip-rule="evenodd" d="M17.8213 34.7673C20.7208 34.7673 23.0713 32.4168 23.0713 29.5173C23.0713 26.6178 20.7208 24.2673 17.8213 24.2673C14.9218 24.2673 12.5713 26.6178 12.5713 29.5173C12.5713 32.4168 14.9218 34.7673 17.8213 34.7673ZM19.3206 26.7748V30.2727C19.3206 30.4186 19.2113 30.5302 19.0683 30.5302C18.9254 30.5302 18.8161 30.4186 18.8161 30.2727V26.7748C18.8161 26.6289 18.9254 26.5173 19.0683 26.5173C19.2113 26.5173 19.3206 26.6289 19.3206 26.7748ZM19.0515 31.5903C18.9843 31.7105 18.9002 31.8135 18.8077 31.9165C18.4546 32.2942 17.9586 32.5173 17.4458 32.5173C16.9834 32.5173 16.521 32.3371 16.1763 32.0195C15.8317 31.7019 15.6131 31.2555 15.571 30.7834C15.5626 30.6461 15.6635 30.5173 15.798 30.5087C15.9325 30.5002 16.0587 30.6032 16.0671 30.7405C16.0923 31.0495 16.2352 31.4015 16.5126 31.659C16.7901 31.9165 17.1516 32.0281 17.4542 32.0281C17.8241 32.0281 18.194 31.865 18.4462 31.5903C18.5135 31.513 18.5723 31.4272 18.6228 31.3414C18.69 31.2212 18.8414 31.1783 18.9591 31.2469C19.0768 31.3156 19.1188 31.4701 19.0515 31.5903Z" fill="#202020"/>
<path id="Subtract_2" fill-rule="evenodd" clip-rule="evenodd" d="M32.1108 26.5173C35.0103 26.5173 37.3608 24.1668 37.3608 21.2673C37.3608 18.3678 35.0103 16.0173 32.1108 16.0173C29.2113 16.0173 26.8608 18.3678 26.8608 21.2673C26.8608 24.1668 29.2113 26.5173 32.1108 26.5173ZM31.8507 24.0102V19.6959C31.8507 19.5502 31.9612 19.4388 32.1059 19.4388C32.2505 19.4388 32.3611 19.5502 32.3611 19.6959V24.0102C32.3611 24.1559 32.2505 24.2673 32.1059 24.2673C31.9612 24.2673 31.8507 24.1559 31.8507 24.0102ZM30.1153 18.2673H34.1049C34.2495 18.2673 34.3601 18.3788 34.3601 18.5245C34.3601 18.6702 34.2495 18.7816 34.1049 18.7816H30.1153C29.9707 18.7816 29.8601 18.6702 29.8601 18.5245C29.8601 18.3788 29.9707 18.2673 30.1153 18.2673Z" fill="#202020"/>
</g>
</svg>
