<svg width="32" height="32" viewBox="0 0 32 32" fill="none" xmlns="http://www.w3.org/2000/svg">
<g id="Frame 37">
<path id="icons8-&#208;&#177;&#208;&#181;&#208;&#179;-50 1 (Traced)" fill-rule="evenodd" clip-rule="evenodd" d="M19.3752 5.19771C18.457 6.09661 18.5423 8.07279 19.5341 8.87844C21.6258 10.5781 24.871 7.40105 23.1349 5.35331C22.3119 4.3823 20.2934 4.2988 19.3752 5.19771ZM10.5373 9.9362C9.24584 10.8525 8.18866 11.83 8.18866 12.1086C8.18866 13.2754 9.49006 13.2423 11.4051 12.0262C13.3898 10.7662 15.3879 10.5846 15.3879 11.6635C15.3879 11.9557 14.7649 13.0927 14.0034 14.1895C12.0153 17.0542 12.2197 17.9033 15.3608 19.8144C17.9204 21.372 18.0788 21.5965 17.7404 23.1807C17.0532 26.4011 17.2387 27.589 18.4277 27.589C19.332 27.589 19.6654 26.9731 20.2867 24.1506L21.0438 20.7117L19.368 19.0001L17.6917 17.2879L19.0069 14.8482C20.8029 11.5161 20.7253 10.5998 18.5722 9.71988C14.6187 8.10315 13.0631 8.1449 10.5373 9.9362ZM20.4396 14.1824C19.9528 15.0732 19.9389 15.6826 20.3875 16.5029C20.8915 17.4245 21.4408 17.5877 23.5912 17.4516C26.9494 17.2397 27.2534 15.7953 24.0242 15.3903C22.5229 15.2022 21.7454 14.7918 21.4807 14.0469C21.1119 13.0086 21.0786 13.013 20.4396 14.1824ZM11.1387 19.3915C10.8502 19.8962 9.63848 20.2633 7.9101 20.3701C5.57035 20.5143 5.14282 20.7084 5.14282 21.6252C5.14282 22.5756 5.56647 22.7296 8.57465 22.87C11.7379 23.0186 12.079 22.9215 12.9413 21.6333C13.4557 20.8645 13.7803 20.1744 13.6629 20.0996C13.5455 20.0242 13.0338 19.6523 12.5254 19.2733C11.765 18.7057 11.5186 18.7268 11.1387 19.3915Z" fill="#202020"/>
</g>
</svg>
