<svg width="21" height="19" viewBox="0 0 21 19" fill="none" xmlns="http://www.w3.org/2000/svg">
<g id="TelegramLogo">
<path id="Vector" d="M6.6007 10.2823L15.0304 17.7005C15.128 17.7863 15.2461 17.8453 15.3733 17.8717C15.5005 17.8982 15.6324 17.8911 15.7561 17.8512C15.8797 17.8114 15.9909 17.74 16.0787 17.6443C16.1665 17.5485 16.2279 17.4316 16.257 17.305L19.7833 1.91753C19.8137 1.78449 19.8073 1.64565 19.7648 1.51598C19.7222 1.38631 19.645 1.27071 19.5416 1.18165C19.4381 1.0926 19.3124 1.03345 19.1778 1.01059C19.0432 0.987735 18.905 1.00203 18.778 1.05194L1.47576 7.84923C1.32497 7.90847 1.19741 8.01495 1.11218 8.15272C1.02695 8.2905 0.98862 8.45218 1.00293 8.61356C1.01725 8.77494 1.08343 8.92734 1.19159 9.04797C1.29974 9.16859 1.44405 9.25095 1.60291 9.28273L6.6007 10.2823ZM6.6007 10.2823L19.3612 1.06635M6.6007 10.2823L6.60071 16.3865C6.60071 16.5348 6.6447 16.6798 6.72711 16.8032C6.80952 16.9265 6.92665 17.0226 7.0637 17.0794C7.20074 17.1362 7.35154 17.151 7.49703 17.1221C7.64251 17.0931 7.77615 17.0217 7.88104 16.9168L10.8107 13.9871" stroke="#202020" stroke-width="1.5" stroke-linecap="round" stroke-linejoin="round"/>
</g>
</svg>
